<?xml version="1.0" encoding="UTF-8" standalone="no"?>
<svg
   xmlns:dc="http://purl.org/dc/elements/1.1/"
   xmlns:cc="http://creativecommons.org/ns#"
   xmlns:rdf="http://www.w3.org/1999/02/22-rdf-syntax-ns#"
   xmlns:svg="http://www.w3.org/2000/svg"
   xmlns="http://www.w3.org/2000/svg"
   xmlns:sodipodi="http://sodipodi.sourceforge.net/DTD/sodipodi-0.dtd"
   xmlns:inkscape="http://www.inkscape.org/namespaces/inkscape"
   width="264.58334mm"
   height="74.726997mm"
   viewBox="0 0 264.58334 74.726997"
   version="1.1"
   id="svg1291"
   inkscape:version="1.0.1 (3bc2e813f5, 2020-09-07)"
   sodipodi:docname="Edpuzzle_(2013).svg">
  <style
     id="style1293"></style>
  <defs
     id="defs1285" />
  <sodipodi:namedview
     id="base"
     pagecolor="#ffffff"
     bordercolor="#666666"
     borderopacity="1.0"
     inkscape:pageopacity="0.0"
     inkscape:pageshadow="2"
     inkscape:zoom="0.49497475"
     inkscape:cx="498.16829"
     inkscape:cy="133.38325"
     inkscape:document-units="mm"
     inkscape:current-layer="layer1"
     inkscape:document-rotation="0"
     showgrid="false"
     inkscape:window-width="1366"
     inkscape:window-height="706"
     inkscape:window-x="-8"
     inkscape:window-y="-8"
     inkscape:window-maximized="1" />
  <metadata
     id="metadata1288">
    <rdf:RDF>
      <cc:Work
         rdf:about="">
        <dc:format>image/svg+xml</dc:format>
        <dc:type
           rdf:resource="http://purl.org/dc/dcmitype/StillImage" />
        <dc:title></dc:title>
      </cc:Work>
    </rdf:RDF>
  </metadata>
  <g
     inkscape:label="Layer 1"
     inkscape:groupmode="layer"
     id="layer1"
     transform="translate(69.547619,-102.48769)">
    <g
       transform="matrix(0.59308378,0,0,0.59308378,-69.547382,101.89538)"
       id="g1304"
       style="fill:none;fill-rule:evenodd;stroke:none;stroke-width:1">
      <path
         d="m 82.9789,88.0997 v 0 l 15.738,-15.738 c 2.898,-2.898 2.898,-7.595 0,-10.492 l -15.738,-15.739 c 5.794,-5.795 5.794,-15.19 0,-20.984 -5.795,-5.795 -15.19,-5.795 -20.985,0 L 46.2559,9.4077 c -2.898,-2.898 -7.595,-2.898 -10.493,0 l -26.23,26.231 v 62.953 l 26.23,26.232 c 2.898,2.897 7.595,2.896 10.493,0 l 15.738,-15.74 c -5.794,-5.794 -5.794,-15.189 0,-20.984 5.795,-5.795 15.19,-5.795 20.985,0"
         id="Fill-1"
         fill="#ffffff" />
      <path
         d="m 9.5327,98.5919 26.23,-26.23 c 2.898,-2.898 2.898,-7.595 0,-10.493 l -26.23,-26.23 z"
         id="Fill-4"
         fill="#ffffff" />
      <path
         d="m 93.4136,56.3607 c 1.869,1.868 2.898,4.354 2.898,6.997 0,2.643 -1.029,5.129 -2.898,6.998 l -17.49,17.49 -1.751,-1.752 c -4.821,-4.819 -12.662,-4.819 -17.483,0 -4.818,4.82 -4.818,12.662 0.001,17.482 l 1.751,1.752 -17.489,17.49 c -1.93,1.929 -4.464,2.893 -6.999,2.893 -2.534,0 -5.068,-0.964 -6.997,-2.893 L -4e-4,95.8607 6e-4,30.8547 26.9566,3.8987 c 1.869,-1.869 4.354,-2.9 6.998,-2.9 2.643,0 5.128,1.031 6.998,2.9 l 14.111,14.111 c 6.777,-5.072 16.454,-4.53 22.612,1.627 3.27,3.271 5.071,7.619 5.071,12.244 0,3.789 -1.208,7.392 -3.443,10.368 z m -66.457,3.503 -22.002,-22.002 v 50.993 l 22.002,-22.002 c 0.933,-0.934 1.448,-2.175 1.448,-3.495 0,-1.319 -0.515,-2.561 -1.448,-3.494 z m 62.954,6.989 c 0.933,-0.934 1.447,-2.175 1.447,-3.495 0,-1.319 -0.514,-2.561 -1.447,-3.494 l -17.49,-17.49 1.752,-1.752 c 2.334,-2.335 3.62,-5.439 3.62,-8.741 0,-3.301 -1.286,-6.406 -3.62,-8.74 -4.821,-4.82 -12.662,-4.819 -17.482,-10e-4 l -1.752,1.752 -17.49,-17.49 c -0.934,-0.933 -2.174,-1.447 -3.494,-1.447 -1.32,0 -2.561,0.514 -3.494,1.447 l -24.48,24.479 24.479,24.479 c 3.859,3.859 3.859,10.138 0,13.996 l -24.479,24.478 24.479,24.48 c 0.933,0.934 2.175,1.447 3.495,1.447 1.32,0 2.56,-0.513 3.494,-1.447 l 14.111,-14.111 c -5.071,-6.778 -4.529,-16.455 1.627,-22.612 6.158,-6.156 15.834,-6.699 22.612,-1.627 z m 39.6627,0.8864 c -0.552,0 -0.921,0.369 -0.921,0.92 0,8.374 4.326,12.056 10.675,12.056 4.785,0 8.374,-2.393 9.478,-5.798 0.368,-1.196 1.289,-1.564 2.116,-1.564 h 4.693 c 0.921,0 1.748,0.552 1.565,1.84 -1.105,8.006 -8.281,13.803 -17.852,13.803 -11.043,0 -18.128,-7.821 -18.864,-17.483 -0.276,-3.681 -0.276,-9.202 0,-12.883 0.736,-9.662 7.821,-17.484 18.864,-17.484 11.134,0 18.405,6.902 18.405,18.404 v 6.349 c 0,1.013 -0.83,1.84 -1.841,1.84 z m -0.736,-8.281 c 0,0.553 0.367,0.92 0.92,0.92 h 19.141 c 0.551,0 0.919,-0.367 0.919,-0.92 0,-6.351 -4.693,-10.03 -10.398,-10.03 -6.35,0 -10.582,4.417 -10.582,10.03 z m 36.8988,12.0547 c -0.277,-3.681 -0.277,-9.202 0,-12.883 0.736,-9.662 7.821,-17.483 17.483,-17.483 4.234,0 6.718,2.3 8.559,2.3 1.38,0 2.023,-0.553 2.023,-2.3 v -16.289 c 0,-1.012 0.829,-1.84 1.841,-1.84 h 4.601 c 1.012,0 1.84,0.828 1.84,1.84 v 61.378 c 0,1.011 -0.828,1.84 -1.84,1.84 h -3.128 c -0.552,0 -0.921,-0.276 -1.288,-0.644 -0.553,-0.644 -1.381,-1.472 -2.301,-1.472 -2.669,0 -3.497,3.036 -10.307,3.036 -9.662,0 -16.747,-7.821 -17.483,-17.483 z m 7.821,0 c 0.368,4.877 4.232,9.202 10.583,9.202 6.349,0 10.214,-4.325 10.582,-9.202 0.275,-3.773 0.275,-9.109 0,-12.883 -0.368,-4.877 -4.233,-9.202 -10.582,-9.202 -6.351,0 -10.215,4.325 -10.583,9.202 -0.276,3.774 -0.276,9.11 0,12.883 z M 250.1164,58.63 c 0.276,3.681 0.276,9.202 0,12.883 -0.736,9.662 -7.822,17.483 -17.484,17.483 -4.234,0 -6.718,-2.3 -8.558,-2.3 -1.381,0 -2.025,0.551 -2.025,2.3 v 15.645 c 0,1.011 -0.827,1.84 -1.84,1.84 h -4.602 c -1.011,0 -1.839,-0.829 -1.839,-1.84 V 43.906 c 0,-1.012 0.828,-1.839 1.839,-1.839 h 3.129 c 0.553,0 0.92,0.276 1.289,0.643 0.552,0.645 1.38,1.473 2.3,1.473 2.669,0 3.497,-3.036 10.307,-3.036 9.662,0 16.748,7.821 17.484,17.483 z m -7.822,0 c -0.368,-4.877 -4.233,-9.202 -10.582,-9.202 -6.35,0 -10.215,4.325 -10.583,9.202 -0.276,3.773 -0.276,9.109 0,12.883 0.368,4.877 4.233,9.202 10.583,9.202 6.349,0 10.214,-4.325 10.582,-9.202 0.275,-3.774 0.275,-9.11 0,-12.883 z m 17.0224,-14.7236 c 0,-1.013 0.828,-1.84 1.84,-1.84 h 4.601 c 1.013,0 1.84,0.827 1.84,1.84 v 27.606 c 0,5.337 3.774,9.203 10.123,9.203 5.705,0 10.122,-3.406 10.122,-8.744 v -28.065 c 0,-1.013 0.828,-1.84 1.841,-1.84 h 4.601 c 1.011,0 1.841,0.827 1.841,1.84 v 42.329 c 0,1.012 -0.83,1.841 -1.841,1.841 h -4.049 c -0.552,0 -0.921,-0.276 -1.288,-0.645 -0.553,-0.643 -1.381,-1.471 -2.301,-1.471 -2.669,0 -3.037,3.036 -9.846,3.036 -10.399,0 -17.484,-7.361 -17.484,-17.484 z m 70.4864,6.9931 c 0.369,-0.459 0.093,-0.92 -0.46,-0.92 h -22.177 c -1.012,0 -1.84,-0.828 -1.84,-1.84 v -4.233 c 0,-1.013 0.828,-1.84 1.84,-1.84 h 31.287 c 1.013,0 1.84,0.827 1.84,1.84 v 5.245 c 0,1.656 -1.011,2.76 -1.84,3.773 l -23.189,26.318 c -0.367,0.46 -0.092,0.92 0.46,0.92 h 23.649 c 1.013,0 1.841,0.829 1.841,1.841 v 4.232 c 0,1.012 -0.828,1.841 -1.841,1.841 h -33.127 c -1.012,0 -1.84,-0.829 -1.84,-1.841 v -5.429 c 0,-1.196 0.091,-1.564 1.196,-2.853 z m 42.3281,0 c 0.368,-0.459 0.092,-0.92 -0.46,-0.92 h -22.177 c -1.012,0 -1.841,-0.828 -1.841,-1.84 v -4.233 c 0,-1.013 0.829,-1.84 1.841,-1.84 h 31.286 c 1.013,0 1.841,0.827 1.841,1.84 v 5.245 c 0,1.656 -1.011,2.76 -1.841,3.773 l -23.188,26.318 c -0.368,0.46 -0.092,0.92 0.46,0.92 h 23.649 c 1.012,0 1.841,0.829 1.841,1.841 v 4.232 c 0,1.012 -0.829,1.841 -1.841,1.841 h -33.128 c -1.011,0 -1.839,-0.829 -1.839,-1.841 v -5.429 c 0,-1.196 0.091,-1.564 1.196,-2.853 z m 26.5937,35.336 c 0,1.012 -0.829,1.841 -1.841,1.841 h -4.6 c -1.013,0 -1.841,-0.829 -1.841,-1.841 v -61.378 c 0,-1.012 0.828,-1.84 1.841,-1.84 h 4.6 c 1.012,0 1.841,0.828 1.841,1.84 z m 19.2302,-18.4964 c -0.552,0 -0.92,0.369 -0.92,0.92 0,8.374 4.325,12.056 10.674,12.056 4.785,0 8.374,-2.393 9.479,-5.798 0.368,-1.196 1.288,-1.564 2.116,-1.564 h 4.693 c 0.92,0 1.748,0.552 1.565,1.84 -1.105,8.006 -8.282,13.803 -17.853,13.803 -11.042,0 -18.128,-7.821 -18.864,-17.483 -0.276,-3.681 -0.276,-9.202 0,-12.883 0.736,-9.662 7.822,-17.484 18.864,-17.484 11.135,0 18.405,6.902 18.405,18.404 v 6.349 c 0,1.013 -0.829,1.84 -1.841,1.84 z m -0.736,-8.281 c 0,0.553 0.368,0.92 0.92,0.92 h 19.141 c 0.551,0 0.919,-0.367 0.919,-0.92 0,-6.351 -4.692,-10.03 -10.398,-10.03 -6.349,0 -10.582,4.417 -10.582,10.03 z"
         id="black"
         fill="#ffffff" />
    </g>
  </g>
</svg>
